<svg width="167" height="30" viewBox="0 0 167 30" fill="none" xmlns="http://www.w3.org/2000/svg">
<path d="M19.3322 17.3043C19.0624 17.5658 18.9384 17.9439 18.9999 18.3147L19.9259 23.4397C20.004 23.8741 19.8207 24.3137 19.4572 24.5647C19.1009 24.8252 18.627 24.8564 18.2384 24.6481L13.6249 22.2418C13.4645 22.1564 13.2863 22.1106 13.104 22.1054H12.8217C12.7238 22.1199 12.628 22.1512 12.5405 22.1991L7.92591 24.6168C7.69779 24.7314 7.43945 24.772 7.18633 24.7314C6.56966 24.6147 6.1582 24.0272 6.25925 23.4074L7.18633 18.2824C7.24779 17.9085 7.12383 17.5283 6.85404 17.2627L3.09258 13.6168C2.778 13.3116 2.66862 12.8533 2.81237 12.4397C2.95195 12.0272 3.3082 11.7262 3.73841 11.6585L8.9155 10.9074C9.30925 10.8668 9.65508 10.6272 9.83216 10.2731L12.1134 5.59599C12.1676 5.49182 12.2374 5.39599 12.3217 5.31474L12.4155 5.24182C12.4645 5.18765 12.5207 5.14286 12.5832 5.1064L12.6967 5.06474L12.8738 4.99182H13.3124C13.704 5.03245 14.0488 5.26682 14.229 5.61682L16.5405 10.2731C16.7072 10.6137 17.0311 10.8502 17.4051 10.9074L22.5822 11.6585C23.0197 11.721 23.3853 12.0231 23.5301 12.4397C23.6665 12.8574 23.5488 13.3158 23.228 13.6168L19.3322 17.3043Z" fill="#FFD53F"/>
<path d="M44.3322 17.3043C44.0624 17.5658 43.9384 17.9439 43.9999 18.3147L44.9259 23.4397C45.004 23.8741 44.8207 24.3137 44.4572 24.5647C44.1009 24.8252 43.627 24.8564 43.2384 24.6481L38.6249 22.2418C38.4645 22.1564 38.2863 22.1106 38.104 22.1054H37.8217C37.7238 22.1199 37.628 22.1512 37.5405 22.1991L32.9259 24.6168C32.6978 24.7314 32.4395 24.772 32.1863 24.7314C31.5697 24.6147 31.1582 24.0272 31.2592 23.4074L32.1863 18.2824C32.2478 17.9085 32.1238 17.5283 31.854 17.2627L28.0926 13.6168C27.778 13.3116 27.6686 12.8533 27.8124 12.4397C27.952 12.0272 28.3082 11.7262 28.7384 11.6585L33.9155 10.9074C34.3092 10.8668 34.6551 10.6272 34.8322 10.2731L37.1134 5.59599C37.1676 5.49182 37.2374 5.39599 37.3217 5.31474L37.4155 5.24182C37.4645 5.18765 37.5207 5.14286 37.5832 5.1064L37.6967 5.06474L37.8738 4.99182H38.3124C38.704 5.03245 39.0488 5.26682 39.229 5.61682L41.5405 10.2731C41.7072 10.6137 42.0311 10.8502 42.4051 10.9074L47.5822 11.6585C48.0197 11.721 48.3853 12.0231 48.5301 12.4397C48.6665 12.8574 48.5488 13.3158 48.228 13.6168L44.3322 17.3043Z" fill="#FFD53F"/>
<path d="M69.3322 17.3043C69.0624 17.5658 68.9384 17.9439 68.9999 18.3147L69.9259 23.4397C70.004 23.8741 69.8207 24.3137 69.4572 24.5647C69.1009 24.8252 68.627 24.8564 68.2384 24.6481L63.6249 22.2418C63.4645 22.1564 63.2863 22.1106 63.104 22.1054H62.8217C62.7238 22.1199 62.628 22.1512 62.5405 22.1991L57.9259 24.6168C57.6978 24.7314 57.4395 24.772 57.1863 24.7314C56.5697 24.6147 56.1582 24.0272 56.2592 23.4074L57.1863 18.2824C57.2478 17.9085 57.1238 17.5283 56.854 17.2627L53.0926 13.6168C52.778 13.3116 52.6686 12.8533 52.8124 12.4397C52.952 12.0272 53.3082 11.7262 53.7384 11.6585L58.9155 10.9074C59.3092 10.8668 59.6551 10.6272 59.8322 10.2731L62.1134 5.59599C62.1676 5.49182 62.2374 5.39599 62.3217 5.31474L62.4155 5.24182C62.4645 5.18765 62.5207 5.14286 62.5832 5.1064L62.6967 5.06474L62.8738 4.99182H63.3124C63.704 5.03245 64.0488 5.26682 64.229 5.61682L66.5405 10.2731C66.7072 10.6137 67.0311 10.8502 67.4051 10.9074L72.5822 11.6585C73.0197 11.721 73.3853 12.0231 73.5301 12.4397C73.6665 12.8574 73.5488 13.3158 73.228 13.6168L69.3322 17.3043Z" fill="#FFD53F"/>
<path d="M94.3322 17.3043C94.0624 17.5658 93.9384 17.9439 93.9999 18.3147L94.9259 23.4397C95.004 23.8741 94.8207 24.3137 94.4572 24.5647C94.1009 24.8252 93.627 24.8564 93.2384 24.6481L88.6249 22.2418C88.4645 22.1564 88.2863 22.1106 88.104 22.1054H87.8217C87.7238 22.1199 87.628 22.1512 87.5405 22.1991L82.9259 24.6168C82.6978 24.7314 82.4395 24.772 82.1863 24.7314C81.5697 24.6147 81.1582 24.0272 81.2592 23.4074L82.1863 18.2824C82.2478 17.9085 82.1238 17.5283 81.854 17.2627L78.0926 13.6168C77.778 13.3116 77.6686 12.8533 77.8124 12.4397C77.952 12.0272 78.3082 11.7262 78.7384 11.6585L83.9155 10.9074C84.3092 10.8668 84.6551 10.6272 84.8322 10.2731L87.1134 5.59599C87.1676 5.49182 87.2374 5.39599 87.3217 5.31474L87.4155 5.24182C87.4645 5.18765 87.5207 5.14286 87.5832 5.1064L87.6967 5.06474L87.8738 4.99182H88.3124C88.704 5.03245 89.0488 5.26682 89.229 5.61682L91.5405 10.2731C91.7072 10.6137 92.0311 10.8502 92.4051 10.9074L97.5822 11.6585C98.0197 11.721 98.3853 12.0231 98.5301 12.4397C98.6665 12.8574 98.5488 13.3158 98.228 13.6168L94.3322 17.3043Z" stroke="#FFD53F"/>
<path d="M119.332 17.3043C119.062 17.5658 118.938 17.9439 119 18.3147L119.926 23.4397C120.004 23.8741 119.821 24.3137 119.457 24.5647C119.101 24.8252 118.627 24.8564 118.238 24.6481L113.625 22.2418C113.464 22.1564 113.286 22.1106 113.104 22.1054H112.822C112.724 22.1199 112.628 22.1512 112.54 22.1991L107.926 24.6168C107.698 24.7314 107.439 24.772 107.186 24.7314C106.57 24.6147 106.158 24.0272 106.259 23.4074L107.186 18.2824C107.248 17.9085 107.124 17.5283 106.854 17.2627L103.093 13.6168C102.778 13.3116 102.669 12.8533 102.812 12.4397C102.952 12.0272 103.308 11.7262 103.738 11.6585L108.915 10.9074C109.309 10.8668 109.655 10.6272 109.832 10.2731L112.113 5.59599C112.168 5.49182 112.237 5.39599 112.322 5.31474L112.415 5.24182C112.464 5.18765 112.521 5.14286 112.583 5.1064L112.697 5.06474L112.874 4.99182H113.312C113.704 5.03245 114.049 5.26682 114.229 5.61682L116.54 10.2731C116.707 10.6137 117.031 10.8502 117.405 10.9074L122.582 11.6585C123.02 11.721 123.385 12.0231 123.53 12.4397C123.667 12.8574 123.549 13.3158 123.228 13.6168L119.332 17.3043Z" stroke="#FFD53F"/>
<path d="M138.372 23.6263C137.247 23.6263 136.244 23.4331 135.363 23.0468C134.488 22.6604 133.792 22.1235 133.275 21.436C132.764 20.7428 132.485 19.9388 132.44 19.0241H134.587C134.633 19.5866 134.826 20.0724 135.167 20.4814C135.508 20.8849 135.954 21.1974 136.505 21.4189C137.056 21.6405 137.667 21.7513 138.337 21.7513C139.087 21.7513 139.752 21.6206 140.332 21.3593C140.911 21.0979 141.366 20.7343 141.695 20.2684C142.025 19.8025 142.19 19.2627 142.19 18.6491C142.19 18.007 142.031 17.4417 141.712 16.953C141.394 16.4587 140.928 16.0724 140.315 15.7939C139.701 15.5155 138.951 15.3763 138.065 15.3763H136.667V13.5013H138.065C138.758 13.5013 139.366 13.3763 139.889 13.1263C140.417 12.8763 140.829 12.5241 141.124 12.0695C141.426 11.615 141.576 11.0809 141.576 10.4672C141.576 9.87633 141.445 9.36213 141.184 8.92463C140.923 8.48713 140.553 8.14622 140.076 7.9019C139.604 7.65758 139.048 7.53542 138.406 7.53542C137.803 7.53542 137.235 7.64622 136.701 7.86781C136.173 8.08372 135.741 8.39906 135.406 8.81383C135.07 9.22292 134.889 9.71724 134.86 10.2968H132.815C132.849 9.38201 133.124 8.58088 133.641 7.89338C134.158 7.20019 134.835 6.66042 135.67 6.27406C136.511 5.88769 137.434 5.69451 138.44 5.69451C139.519 5.69451 140.445 5.91326 141.218 6.35076C141.991 6.78258 142.585 7.3536 142.999 8.06383C143.414 8.77406 143.622 9.5411 143.622 10.365C143.622 11.3479 143.363 12.186 142.846 12.8792C142.335 13.5724 141.639 14.0525 140.758 14.3195V14.4559C141.86 14.6377 142.721 15.1064 143.34 15.8621C143.96 16.6121 144.269 17.5411 144.269 18.6491C144.269 19.5979 144.011 20.4502 143.494 21.2059C142.982 21.9559 142.283 22.5468 141.397 22.9786C140.511 23.4104 139.502 23.6263 138.372 23.6263ZM148.356 23.5241C147.936 23.5241 147.575 23.3735 147.274 23.0724C146.972 22.7712 146.822 22.4104 146.822 21.99C146.822 21.5695 146.972 21.2087 147.274 20.9076C147.575 20.6064 147.936 20.4559 148.356 20.4559C148.776 20.4559 149.137 20.6064 149.438 20.9076C149.74 21.2087 149.89 21.5695 149.89 21.99C149.89 22.2684 149.819 22.5241 149.677 22.757C149.541 22.99 149.356 23.1775 149.123 23.3195C148.896 23.4559 148.64 23.5241 148.356 23.5241ZM158.189 23.6263C156.905 23.6263 155.811 23.2769 154.908 22.578C154.005 21.8735 153.314 20.8536 152.837 19.5184C152.36 18.1775 152.121 16.5581 152.121 14.6604C152.121 12.7741 152.36 11.1633 152.837 9.82804C153.32 8.48713 154.013 7.4644 154.916 6.75985C155.826 6.04963 156.916 5.69451 158.189 5.69451C159.462 5.69451 160.55 6.04963 161.453 6.75985C162.362 7.4644 163.056 8.48713 163.533 9.82804C164.016 11.1633 164.257 12.7741 164.257 14.6604C164.257 16.5581 164.019 18.1775 163.541 19.5184C163.064 20.8536 162.374 21.8735 161.47 22.578C160.567 23.2769 159.473 23.6263 158.189 23.6263ZM158.189 21.7513C159.462 21.7513 160.451 21.1377 161.155 19.9104C161.86 18.6831 162.212 16.9331 162.212 14.6604C162.212 13.1491 162.05 11.8621 161.726 10.7996C161.408 9.73713 160.948 8.92747 160.345 8.37065C159.749 7.81383 159.03 7.53542 158.189 7.53542C156.928 7.53542 155.942 8.15758 155.232 9.4019C154.522 10.6405 154.166 12.3934 154.166 14.6604C154.166 16.1718 154.326 17.4559 154.644 18.5127C154.962 19.5695 155.419 20.3735 156.016 20.9246C156.618 21.4758 157.343 21.7513 158.189 21.7513Z" fill="white"/>
</svg>
